<svg width="100" height="100" viewBox="0 0 100 100" fill="none" xmlns="http://www.w3.org/2000/svg">
<rect opacity="0.0229128" x="0.5" y="0.5" width="99" height="99" stroke="#2B2B2B"/>
<g clip-path="url(#clip0_0_878)">
<path fill-rule="evenodd" clip-rule="evenodd" d="M34.9605 77.5138C34.9605 80.3658 32.6176 82.6785 29.7285 82.6785C26.8393 82.6785 24.4986 80.3658 24.4986 77.5138C24.4986 74.6619 26.8393 72.3492 29.7285 72.3492C32.6176 72.3492 34.9605 74.6619 34.9605 77.5138Z" fill="#4FB4ED"/>
<path fill-rule="evenodd" clip-rule="evenodd" d="M54.2963 77.5138C54.2963 80.3658 51.9534 82.6785 49.0643 82.6785C46.1751 82.6785 43.8344 80.3658 43.8344 77.5138C43.8344 74.6619 46.1751 72.3492 49.0643 72.3492C51.9534 72.3492 54.2963 74.6619 54.2963 77.5138Z" fill="#4FB4ED"/>
<path fill-rule="evenodd" clip-rule="evenodd" d="M73.8304 77.5138C73.8304 80.3658 71.4875 82.6785 68.5983 82.6785C65.7092 82.6785 63.3685 80.3658 63.3685 77.5138C63.3685 74.6619 65.7092 72.3492 68.5983 72.3492C71.4875 72.3492 73.8304 74.6619 73.8304 77.5138Z" fill="#4FB4ED"/>
<path fill-rule="evenodd" clip-rule="evenodd" d="M20.6576 39.1716C13.6794 39.1716 7.99979 44.8321 7.99979 51.792C7.99979 58.7475 13.6794 64.4102 20.6576 64.4102H75.6918C84.4535 64.4102 91.5788 57.3031 91.5788 48.5676C91.5788 39.8321 84.4535 32.725 75.6918 32.725C74.0618 32.725 72.4407 32.9762 70.8787 33.4678L69.8608 33.7904L69.5011 32.7856C66.1381 23.3572 57.1482 17.0232 47.1338 17.0232C34.8906 17.0232 24.7292 26.1701 23.4963 38.2989L23.3822 39.4228L22.259 39.2842C21.636 39.2063 21.1271 39.1716 20.6576 39.1716Z" fill="#D6E3F2"/>
</g>
<defs>
<clipPath id="clip0_0_878">
<rect width="84" height="66" fill="white" transform="translate(8 17)"/>
</clipPath>
</defs>
</svg>
