<svg width="100" height="100" viewBox="0 0 100 100" fill="none" xmlns="http://www.w3.org/2000/svg">
<rect opacity="0.0229128" x="0.5" y="0.5" width="99" height="99" stroke="#2B2B2B"/>
<g clip-path="url(#clip0_0_708)">
<path fill-rule="evenodd" clip-rule="evenodd" d="M22.8704 61.8791C22.8704 61.8791 20.1431 69.1638 20.8249 71.9455C21.3868 74.2461 23.7521 75.6558 26.1027 75.089C28.4575 74.5201 29.9011 72.1902 29.3371 69.8895C28.6574 67.1057 22.8704 61.8791 22.8704 61.8791Z" fill="#38A1E8"/>
<path fill-rule="evenodd" clip-rule="evenodd" d="M39.7304 61.5405C39.7304 61.5405 37.0032 68.8252 37.685 71.6068C38.2469 73.9075 40.6122 75.3172 42.9628 74.7504C45.3176 74.1815 46.7612 71.8516 46.1972 69.5509C45.5175 66.7671 39.7304 61.5405 39.7304 61.5405Z" fill="#38A1E8"/>
<path fill-rule="evenodd" clip-rule="evenodd" d="M57.2498 61.1889C57.2498 61.1889 54.5225 68.4736 55.2043 71.2553C55.7662 73.5559 58.1315 74.9656 60.4821 74.3988C62.8369 73.8299 64.2805 71.5 63.7165 69.1993C63.0368 66.4156 57.2498 61.1889 57.2498 61.1889Z" fill="#38A1E8"/>
<path fill-rule="evenodd" clip-rule="evenodd" d="M73.7534 60.3715C73.7534 60.3715 71.0261 67.6562 71.7079 70.4379C72.2698 72.7386 74.6351 74.1482 76.9857 73.5814C79.3405 73.0125 80.7841 70.6826 80.2201 68.382C79.5404 65.5982 73.7534 60.3715 73.7534 60.3715Z" fill="#38A1E8"/>
<path fill-rule="evenodd" clip-rule="evenodd" d="M32.7609 77.2583C32.7609 77.2583 30.0337 84.543 30.7155 87.3247C31.2773 89.6253 33.6427 91.035 35.9933 90.4682C38.3481 89.8993 39.7917 87.5694 39.2277 85.2687C38.548 82.485 32.7609 77.2583 32.7609 77.2583Z" fill="#38A1E8"/>
<path fill-rule="evenodd" clip-rule="evenodd" d="M50.2803 76.9065C50.2803 76.9065 47.553 84.1912 48.2349 86.9729C48.7967 89.2735 51.162 90.6832 53.5126 90.1164C55.8674 89.5475 57.311 87.2176 56.7471 84.9169C56.0673 82.1331 50.2803 76.9065 50.2803 76.9065Z" fill="#38A1E8"/>
<path fill-rule="evenodd" clip-rule="evenodd" d="M66.7839 76.0891C66.7839 76.0891 64.0566 83.3738 64.7384 86.1555C65.3003 88.4562 67.6656 89.8658 70.0162 89.299C72.371 88.7302 73.8146 86.4002 73.2506 84.0996C72.5709 81.3158 66.7839 76.0891 66.7839 76.0891Z" fill="#38A1E8"/>
<path fill-rule="evenodd" clip-rule="evenodd" d="M88.9602 34.0864C95.0208 34.0864 99.9514 39.0516 99.9514 45.1588C99.9514 51.2618 95.0208 56.227 88.9602 56.227H41.1719C33.5667 56.227 27.3777 49.9923 27.3777 42.329C27.3777 34.6658 33.5667 28.431 41.1719 28.431C42.5882 28.431 43.996 28.6506 45.3512 29.0836L46.2372 29.3659L46.5486 28.4854C49.4695 20.2135 57.2746 14.6564 65.9699 14.6564C76.6012 14.6564 85.4249 22.6794 86.496 33.3209L86.5949 34.306L87.5714 34.1847C88.1101 34.1178 88.552 34.0864 88.9602 34.0864Z" fill="#BAC6D1"/>
<path fill-rule="evenodd" clip-rule="evenodd" d="M12.142 32.0414C5.44802 32.0414 -0.000213623 37.5085 -0.000213623 44.2306C-0.000213623 50.9485 5.44802 56.4178 12.142 56.4178H64.9345C73.3394 56.4178 80.1744 49.5535 80.1744 41.1164C80.1744 32.6793 73.3394 25.815 64.9345 25.815C63.371 25.815 61.8159 26.0576 60.3175 26.5323L59.3411 26.844L58.996 25.8735C55.77 16.7671 47.1462 10.6495 37.5398 10.6495C25.7952 10.6495 16.0478 19.484 14.8651 31.1985L14.7557 32.284L13.6782 32.1501C13.0806 32.0748 12.5924 32.0414 12.142 32.0414Z" fill="#D6E3F2"/>
</g>
<defs>
<clipPath id="clip0_0_708">
<rect width="100" height="81" fill="white" transform="translate(0 10)"/>
</clipPath>
</defs>
</svg>
